<svg width="64" height="64" viewBox="0 0 64 64" fill="none" xmlns="http://www.w3.org/2000/svg">
<path fill-rule="evenodd" clip-rule="evenodd" d="M3.33333 31.9999C3.33333 16.1677 16.1678 3.33325 32 3.33325C47.8322 3.33325 60.6667 16.1677 60.6667 31.9999C60.6667 47.8321 47.8322 60.6666 32 60.6666C16.1678 60.6666 3.33333 47.8321 3.33333 31.9999ZM32 7.33325C18.377 7.33325 7.33333 18.3769 7.33333 31.9999C7.33333 45.623 18.377 56.6666 32 56.6666C45.623 56.6666 56.6667 45.623 56.6667 31.9999C56.6667 18.3769 45.623 7.33325 32 7.33325Z" fill="url(#paint0_linear_240_503)"/>
<path fill-rule="evenodd" clip-rule="evenodd" d="M25.6667 21.0304C26.2855 20.6731 27.0479 20.6731 27.6667 21.0304L43.6667 30.268C44.2855 30.6253 44.6667 31.2855 44.6667 32.0001C44.6667 32.7146 44.2855 33.3748 43.6667 33.7321L27.6667 42.9697C27.0479 43.327 26.2855 43.327 25.6667 42.9697C25.0479 42.6124 24.6667 41.9522 24.6667 41.2376V22.7625C24.6667 22.0479 25.0479 21.3877 25.6667 21.0304ZM28.6667 26.2266V37.7735L38.6667 32.0001L28.6667 26.2266Z" fill="url(#paint1_linear_240_503)"/>
<defs>
<linearGradient id="paint0_linear_240_503" x1="3.33333" y1="3.33325" x2="61.3656" y2="4.0497" gradientUnits="userSpaceOnUse">
<stop stop-color="#73E0A9"/>
<stop offset="1" stop-color="#5B68DF"/>
</linearGradient>
<linearGradient id="paint1_linear_240_503" x1="24.6667" y1="20.7625" x2="44.9111" y2="20.9849" gradientUnits="userSpaceOnUse">
<stop stop-color="#73E0A9"/>
<stop offset="1" stop-color="#5B68DF"/>
</linearGradient>
</defs>
</svg>
