<svg width="20" height="20" viewBox="0 0 20 20" fill="none" xmlns="http://www.w3.org/2000/svg">
<path fill-rule="evenodd" clip-rule="evenodd" d="M2.91668 6.04169C2.80162 6.04169 2.70834 6.13496 2.70834 6.25002V15.4167C2.70834 15.5317 2.80162 15.625 2.91668 15.625H17.0833C17.1984 15.625 17.2917 15.5317 17.2917 15.4167V6.25002C17.2917 6.13496 17.1984 6.04169 17.0833 6.04169H2.91668ZM1.45834 6.25002C1.45834 5.44461 2.11126 4.79169 2.91668 4.79169H17.0833C17.8888 4.79169 18.5417 5.44461 18.5417 6.25002V15.4167C18.5417 16.2221 17.8888 16.875 17.0833 16.875H2.91668C2.11126 16.875 1.45834 16.2221 1.45834 15.4167V6.25002Z" fill="white"/>
<path fill-rule="evenodd" clip-rule="evenodd" d="M9.79166 8.33331C9.79166 7.98814 10.0715 7.70831 10.4167 7.70831H17.9167C18.2618 7.70831 18.5417 7.98814 18.5417 8.33331V12.9166C18.5417 13.2618 18.2618 13.5416 17.9167 13.5416H10.4167C10.0715 13.5416 9.79166 13.2618 9.79166 12.9166V8.33331ZM11.0417 8.95831V12.2916H17.2917V8.95831H11.0417Z" fill="white"/>
<path fill-rule="evenodd" clip-rule="evenodd" d="M17.9167 6.875C18.2618 6.875 18.5417 7.15482 18.5417 7.5V13.75C18.5417 14.0952 18.2618 14.375 17.9167 14.375C17.5715 14.375 17.2917 14.0952 17.2917 13.75V7.5C17.2917 7.15482 17.5715 6.875 17.9167 6.875Z" fill="white"/>
<path fill-rule="evenodd" clip-rule="evenodd" d="M3.20924 3.21213C3.61115 2.67892 4.26645 2.29169 5.20834 2.29169H11.25C11.6742 2.29169 12.3455 2.4271 12.9234 2.90298C13.5279 3.40079 13.9583 4.21234 13.9583 5.41669C13.9583 5.76187 13.6785 6.04169 13.3333 6.04169C12.9882 6.04169 12.7083 5.76187 12.7083 5.41669C12.7083 4.5377 12.4097 4.09925 12.1287 3.86789C11.8212 3.61461 11.4508 3.54169 11.25 3.54169H5.20834C4.65024 3.54169 4.36803 3.75147 4.20744 3.96453C4.02416 4.20768 3.95834 4.51521 3.95834 4.70773V5.41669C3.95834 5.76187 3.67852 6.04169 3.33334 6.04169C2.98817 6.04169 2.70834 5.76187 2.70834 5.41669V4.70773C2.70834 4.30324 2.83002 3.71524 3.20924 3.21213Z" fill="white"/>
<path d="M13.9583 11.25C14.3035 11.25 14.5833 10.9702 14.5833 10.625C14.5833 10.2798 14.3035 10 13.9583 10C13.6132 10 13.3333 10.2798 13.3333 10.625C13.3333 10.9702 13.6132 11.25 13.9583 11.25Z" fill="white"/>
</svg>
